<mxfile host="app.diagrams.net" agent="Mozilla/5.0 (Windows NT 10.0; Win64; x64; rv:134.0) Gecko/20100101 Firefox/134.0" version="26.0.5">
  <diagram id="l8hXMBHkgcEJcSW0mbfh" name="Page-1">
    <mxGraphModel dx="1434" dy="718" grid="1" gridSize="10" guides="1" tooltips="1" connect="1" arrows="1" fold="1" page="1" pageScale="1" pageWidth="1169" pageHeight="827" math="0" shadow="0">
      <root>
        <mxCell id="0" />
        <mxCell id="1" parent="0" />
        <mxCell id="ylZRVDWA_mgePYQw_-r8-1" value="" style="html=1;verticalLabelPosition=bottom;align=center;labelBackgroundColor=#ffffff;verticalAlign=top;strokeWidth=2;strokeColor=#0080F0;shadow=0;dashed=0;shape=mxgraph.ios7.icons.home;" vertex="1" parent="1">
          <mxGeometry x="190" y="188.5" width="124.8" height="124.8" as="geometry" />
        </mxCell>
        <mxCell id="ylZRVDWA_mgePYQw_-r8-2" value="" style="shape=image;html=1;verticalAlign=top;verticalLabelPosition=bottom;labelBackgroundColor=#ffffff;imageAspect=0;aspect=fixed;image=https://cdn1.iconfinder.com/data/icons/fruit-136/64/Fruit_iconfree_Filled_Outline_raspberry-healthy-organic-food-fruit_icon-128.png" vertex="1" parent="1">
          <mxGeometry x="190" y="261.8" width="58" height="58" as="geometry" />
        </mxCell>
        <mxCell id="ylZRVDWA_mgePYQw_-r8-3" value="" style="sketch=0;pointerEvents=1;shadow=0;dashed=0;html=1;strokeColor=none;fillColor=#505050;labelPosition=center;verticalLabelPosition=bottom;verticalAlign=top;outlineConnect=0;align=center;shape=mxgraph.office.servers.reverse_proxy;" vertex="1" parent="1">
          <mxGeometry x="480" y="261.8" width="41" height="53" as="geometry" />
        </mxCell>
        <mxCell id="ylZRVDWA_mgePYQw_-r8-4" value="" style="shape=image;verticalLabelPosition=bottom;labelBackgroundColor=default;verticalAlign=top;aspect=fixed;imageAspect=0;image=data:image/jpeg,/9j/4AAQSkZJRgABAQAAAQABAAD/2wBDAAsJCQcJCQcJCQkJCwkJCQkJCQsJCwsMCwsLDA0QDBEODQ4MEhkSJRodJR0ZHxwpKRYlNzU2GioyPi0pMBk7IRP/2wBDAQcICAsJCxULCxUsHRkdLCwsLCwsLCwsLCwsLCwsLCwsLCwsLCwsLCwsLCwsLCwsLCwsLCwsLCwsLCwsLCwsLCz/wAARCACuAV0DASIAAhEBAxEB/8QAHAABAAIDAQEBAAAAAAAAAAAAAAEFBAYHAwII/8QAVhAAAQQBAQQECAYKDgkFAAAAAQACAwQRBQYSITETQVFhFBUiVHGRktEHMlKBk6EWIzM1QnKUsbPSJDZEU1VidHWCg7LB0/AlJjRDY3OjtPFkdsLh4v/EABoBAQACAwEAAAAAAAAAAAAAAAABBgIEBQP/xAA0EQACAgEBBwMCBQEJAAAAAAAAAQIDBBEFEhQhMVKRE0GhUVMiMjNhsYEjQnGSotHh8PH/2gAMAwEAAhEDEQA/AOtoiIAiIgCIiAIiIAiIgCIiAIiIAiIgCIiAIiIAihSgCKMplASihSgCIiAIiIAiIgCIiAIiIAiIgCIiAIiIApChSEBCIiAIiIAiIgCIiAIiIAiIgCIiAIiIAiKCgJXy4ta1znENaASSSAAO0k8FiXr9WhEJJjlzsiKNuN+Q93d2n/J069qdy+49K7diBy2FhIY309p7z9S5uZtGrF5PnL6HRw9n25T1XKP1NltbQabAS2LesPHA9FgR5/5juHqBVVLtNqDz9qigib3h0jh85IH1KhUqtXbWybHyei/YsdOycatc1q/3LPx9rZOfCQO4QxY+sL7ZtBrLT5UsUnc+Jgz7GCqhFqrNyFzU2bbwcZrTcXg2WDac8rNUd7oHf/B/6yu6moUbozXma4gZLHeTIPS08Vz9fTXOY5r2OLXNwWuaSHA9xHFdCjbN0H/a/iRz79jUz51fhZ0lStX03aAgtg1A5Bw1ljHLqxIB+f19q2YEEA8CCAQRyOVZ8bKryY70GVnIxrMaW7Yj6REW0awREQBERAEREAREQBERAEREAUhQpCAhERAEREAREQBERAEREAREQBETPoQBFDnMaMuc1o7XEAfWvlssTzhkkbj/ABXA/mKjVdCdH1PpY125DRryWJeIb5LGDnI88mhZK0nW75uW3sY7MFYuijxyc8cHv+fkPR3rQz8vhat5dX0N3AxXlW7vsupg2rU9yZ887t57uAHHdY3qawdgXgpRUWcnOTlJ6tl6jGMEoxWiRClQpWBkQiIgCIiALYNC1UxPjo2H5hed2u5x+5uPJhJ6j1f/AGqBP88Oa2cbInjWKcP/AE18nHhk1uEzpWVKqtEvG7UAkOZ4D0Uvfwy1/wA4VoFf6bY3QVkejKDbXKqbhLqiURF6nmEREAREQBERAEREAREQBSFCkICEREAREQBERAEREAREQBERAQtZ1PaBwe+DT3DAy19g8ckcxEDwx3/+VmbQ3XV6rK8biJLRc1xB4tib8b18B61pyru1doTqfo1PR+7LBsrZ8bV61q1Xsj0kllmcXzSPkceZkc5xPrXwPJII4EcQW8CPQQiKruUm9W+ZaFCKWiRZV9b1OvG+PpTKxzHtb0pJdGSMBzXc+HYVW/54oizndZYlGb10MK6K625QWmpCKUXiepClEQEIpRAQilEBClEQFtoFkwagyMu8iyx0JHVvjy2n84+dbqtD0eu+xqVNoyBC/wAJkI6mx8h85wFs9zVX1p3wxxMfuBu8XOI8ojOBhWrZeTGjGcrXpHXkVTatDtydK1za1ZaoqVmufLrew/8AucFmw6nRmIaH7jz+DKN0/MeX1rq1Z+Na9Iz5+P5OTZi3V/miZqKAcjIUreNYIiIAiIgCIiAIiIApChSEBCIiAIiIAiIgCIiAIihASoXlPYrVozJPKyNna84yewDmSqWfaamwlsEEsuPwnkRNPoBy76lrXZVNH6kkjYpxrb/046ldtI4nUI29TK0YH9JziVSrM1G+7UJ2TuibGWxiPDXF2QCSCcjvWEqPm2RtvnOL1TZd8KuVVEYTWjQRSoWmbYREQBERAFKhSgIREQBERAERZlChPqM4gjy2NpBsSjlGw9Q/jHqXpCuVklCC1bMLLI1Rc5vRIvtmq4jr2br/APfuLWE/vMXM/Oc+pYMshllllPOR7nnuyeAWzSQthpSwwNDWsrPjjaOoBpAAWq9noC7W1K+HqqoXRa+St4dvEW2XP3/gIiLhHUMypqFisQ3JfFnixx5fikrYoJ4bEbZInZaefa09hC1FZFO1JUlD28WHAlb8pvvC7Oz9pzpahZzj/By8vBjYnOvqbYi+I3skYyRhBa9oc0jrBX2rkmmtUVxrTkwiIpAREQBERAFIUKQgIREQBERAEREAREQEFV+qanFp0Q4B9iQHoYs8OHDff3BZs0scEUs0hwyJjpHnuaMrn9u1LcsTWJfjSO8kdTGD4rB6Fytp5vDV7sPzP/up1NnYXFWay/Kuv+xFi1ZtymaxIXvPInk0djRyAXgiKlSm5vek9WXSMVBbsVogiIsDIlR2d/1+hSsilbkpWG2I2Rve1r2gSgluHY5YOcrOCTklJ6Iwm5KLcVqzHwfku9l3uTdf1Mk+jf7lffZPe82q/wDU96Dai75rW9ci6CoxPu/6WaHr5f2l/mRRbkv71L9G/wBykRznlDOf6qT3K+G1FvrqQfM+RT9lNjzOL6V/uUqjD+78GLvzPapeSh6Gx+8WPoZPcp8HtHlXsfQye5Xw2pn66UX0rv1VP2Uy+ZM+md+qslj4X3fgx4jN+0vJQ+C3Tyq2voJfcpFS+eVO0f6iT3K++yl3mQ+nP6qkbU9tH1T/AP4WSxsH73wY8TnfZ+Sh8C1A8qdr6GT3L6Gn6o4gCjaye2Iget2Fe/ZU3rou+acfqL6ZtRXLsSVJmt+U2Rjz6iAsli4LenrfBi8rP0/R+f8Akwqmzl2Utdcc2CPrYxwfM7uyPJH1raa1WtUhZDXjDI29Q5k9bnE8SVFa3VuRiWvIHs5HgQWnscDxyvdWTEw6KI71XPX36lcy8u++Wlr6e3QFUFzSp2Pe+s3fjcd7cBAc3uGeYV85zWgucQGtGSScADvJVfLq9GMkM35SDzYAG+ty88+vHshpfLT6EYk7oS1qWpRGtbb8avOP6t39y+THIOccg9LHD84VudcH4NY/PKP7mr4OtzdVaMel7j/cq5LHwl0t+Dsxuyn1r+SoRZNq5LbdG57I2bgIAYDxzjmSsZcyyMVNqD1Xg3q3Jx1mtGXWjWCWyVnHiz7ZH+KT5Q/z2q6C1SjIYrdZ3UXiN3eH+T7ltYVx2Pc7aNH/AHeX9CubQq9O3VdGERF2DnhERAEREAUhQpCAjgnBEQDgnBEQDgnBEQDgoUogKTaOYxUBGDg2JmMPexuXn8wWnLadqc9Fp/Z0s3r3QtXVL2xJvJafskXLY8UsbVe7ZCKUXGOwQilEAUKUQEIpRSCEUooBClEUghFKKAQpRFILXQLEkOoxRA/a7LXxvHUXNaXtPzYPrW4yyxwxvlkOGMBJPWe4d603QYXS6nC4coI5ZnercH51caxYLpWV2nyIgHv73uHD1D86suFlPGwpWS+vIq20KI3ZihH6czFuXZrbjvEtiB8iMcsdru0rFRFX7bZ3Sc5vVs6VdUa47sFoQilQvLQ9AiImgPuLPSwEcxNF/bC3FalVYX2qjO2Zh+Zp3j+ZbYOStWwk9yb/AHK/tRrfiieCcERWI5A4JwREA4JwREA4KQoUhAQiIgCKFiy6npMLzFLqFGOQHBZLZhY8Hs3XOygMtF8tex7WvY5rmOGWuYQ5rh2gjgvpAEWPJe0+Fz2S26sb2fGbJPE1zeGfKDnZXu1zXta5pDmuAc1zSCCDxBBCA8bFSrba1lmGOVjTvAPGcHlkLG8S6J5jX9k+9WCLylTXN6yim/8AA9Y3WQWkZNf1K/xLonmNf2T71HiXRPMa/sn3rJs3KNNgkt2a9dhzuusSsiBx1DfIXhU1jRLztynqNKd+cbkU8bnnr4MzvfUseGp7F4RlxF3e/LI8S6J5jX9k+9PEuieY1/ZPvVgvl72Rtc97mtYwFznPIa1rRzLieCcNT2LwhxF3e/LMHxLonmNf2T708S6J5jX9k+9ZEdyhM8Rw2q0khBIZHNG9xA5kNacr3c5jGue9zWsaC5znEBrWgZJJPDCcNT2LwhxF3e/LMDxLonmMHsn3p4l0XzGD2T71kR3aEr2xxWqskjslrI5o3PIHE4a12VkKOGp7F4Q4i7vfllf4l0XzGD2T708S6L5jB6j717eMNLBIN6mCCQQbEOQRwwfKXpFapzndhsV5XYziKWN59TSp4ansXhDiLu9+WYviXRfMYPZPvTxLovmMHsn3rPUqOGp7F4Q4i7vfllf4l0TzGv7J96eJdF8xg9k+9e772nxvdHJcqMew4cx88TXNPPBBdlR4x0rz6l+UQ/rKeGp7F4Q4i7vflnj4l0TzGv7J96eJdF8xg9R96yYrlGZ/Rw2q0sm6XbkU0b3bo5nDSThernMY173ua1jGlznOIDWtAySSeGE4ansXhDiLu9+WeFejRqF5rV4oi/G+WDBdjlkqH0KMj3Pkrxue47znEcSeXFfUd2hM9scNurJI4EtZHNG95AGSQ1rsrIWXo1tbu6tPpoefqT13tXqYni3TfNYvUni3TfNYvUstFhw1PYvCJ9Wfc/JieLtN81h9lPF2m+aw+ypnv6bUc1lq7UrvcN5rbE8UTnNzjID3A4XrBYq2o+lrTwzxEuaJIJGSMJacEbzCRkdacLR2Lwh6s+5nj4t03zWH1J4t03zWH1LLXnLLDCwyTSRxxjAL5XNY0EnAyXEBOFp7F4Q9Wfc/J5R0aULxJFBG14yA4DiAeeMrJCxfGOlefUvyiH9ZesVmrPvdBPDLjn0UjH49O6SvWEIwWkVoYyk5PWT1PVEXnLNBA0PmliiYSG70r2sbvHkMuIGVmYnoixfGOlefUvyiH9ZPGOlefUvyiH9ZAZSL4Y9kjWPjc17HgOY5hDmuB4gtI4YURzQzAuikikaHbpMb2vAIHIlpIygPRSFCkICERfEnSbknR/dNx+5nHxsHHNAcs2x2st2rVvTKFh0Gn1XSQ2ZInlr7UjMtfvPac9GOIAB44JOcjdqaexu1V6sy3FQijilbvxNtzMhmlaeIduEEjPVkhVVHoPGGmG79wGo1Db3vkCdpfvZ+tfoDIQHDdP1TXtmbz2ME0L4ZALdCfIilHMtczlkj4rh6eI4HtOn3q+pUqd6sSYbULJmZ+M3PNrh2g5B9CptXj2DfczrQ0c3mxRtPhjoxMIuJaCDxx2K00lmjMoVxo4rDTj0jq/gmOgOXu3izHDnnKA4/tsGnaHaHLRzj5geaxrselfevSP5BT/QtXHNtv2w7Q+mP/tY12PSvvZpH8gp/oWIDMVDtTro0HTTPGGuuTv8AB6bH8W9IRl0jx2NHH04HXkXq5z8Jglzs8ePRAagO7pPtJ4/MgNRpUNoNqdQn6JzrNkBslq1bkIiga8kN3ngHng7rWjq5ABZmsbH69okAuTeD2KzC3pJqjpN6Ak4Be17Q7GesdvUtr+Daar4v1euC0WmXxPKOAc6F8LGMd24BDh/547brUlWPR9adZLegFC0JN4gAh0bmho7yeAQGo7C7S27j36NqErpZo4jNSnldmSSNmA+KQnmW5BB7M9i2fabjs9tDn+DrXP8AEK5VsYJjtNoAj+MHWXSH/htrSB/5x6wurbSAnZ/aAAZPi20eHdGSpBzLYING09PAH+xahyA+SxdS17HiPaD+atQ/QPXLdhC1u09HJA36moNb3u3Gux6gV1HXnNGh7QEkAeK7/E8uMLgFAOU7DNaNqNIw0D7Tf5AD9zldp7FxjYYf60aT3QagT3DoCF2fsQH5+fWfa1OSrC2MzWtSlrxB+GtMkk7mjeOOStruxu1WnQvtSU4pI4QXyOozCSSNreJcWhrX4HdlYlD9s2mf+4Iv+6K7o5zGh7nua1jQ5z3OIDWtHElxPDCkHLtkNrr8NyrpmpWH2Kdt7YK00zi6WvK7gxpkPEsdy48sjjjgupr8+SlsmoE1B5MmpM8EDcjg60DHgc+xfoL/ACVAOG7WbjdodoXOaMNtuceAJwImFZ7NgdqpGMkbDp269jXtza44cAR/u1g7Wbv2Q7Q72N3wt29nljomc1mNu/CTus3DtFubrdzdrTEbuOGPtfLsUg2PZHZTXdG1g3r0dNsHgVivmCfpH78j4yBu7g4cD1rcNoPvFtB/Nd79C5a9sPNtPM7W/HZ1LyfAvBfGMT4xxEvSdHvNH8XK2HaD7xbQfzXe/QuUA5XsM1o2o0shrQfB9Q4gDP3BdnXGdhv20aZ/J9Q/QFdmQBQeHXj3KVre2eq+K9EsiN+LN/8AYNfBw4dI0mR49DQfnIQHL9pNUGsazfuA70O/4PU68V4ctaW/jcXf0lsvwc6p0Nu9o8jgI7TTdqjPATRgNlaB3jdP9Eqk2R8SRaq63q9qvBVq1pWwsnz9umna6E4AB4NaXdf4Q7OFaJho+rNs6fO2dmn3elqyxk7s8THHA4/KaS0+lAd8Wq7egHZq7w/dFLn/AM9q2SrYguVqtuB29DZhjnicOtkjQ4LXNvf2t3f5RS/TNQHLNL0XU9ZmsQadBBJJBE2aUSyMiwx7i0EFwXrqGi69oElWS5A6q+RxNeetM0jfZxw2SE5BHPqXrs/tC7ZyxcsMrwzutwxwETSuiDRG4vy3APavbW9o9Y2lkpwPrsDGS/sWpTa975JnjdGS45LuocApB0TYrW7Ws6XL4W7ft0Z/BZZcY6ZpYJGPcBw3sHB9GevhjfCKAdAhBAP+kqvPj+BKsnYrRLWi6U8XQG3L1g2p42uDhCNxsbIiRwJAHlY6z3ccb4RPvBD/ADlV/sSqAc70PZzUNfddZRdTYaghdL4SXtz0u9uhnRsd2HKuj8HG0uD9t0n6Wx/gqh0qvtJYdaGiM1BzmNiNnwCfocBxdudJ5bc9eFaHTfhMOB0O0Hxm/u7+MP8AjqQdPp6dPX0GlpUj4xNDpsNN7ot50W+yMMOOAcWnr5cCvPSNMuUpJZbD2ZdG2HdjeX7+Hb2+9xY0cOTABwBOTx4XI5D0D8ylQApChSEBCIiA5TtjspcqWrWp6fA+ehZe+axHCzekqyvJLyWNGSw88gcOvhxVPU202lo1m1ItSYYomiOLwiOGWWJo4ANfIM8OrOV25YsmnaXLJ0stGm+Xn0kleFz8/jOblAca0nRNc2puOlJn8HlkL7upzh27jr6JzsbzzybjgOvlg9oq1a9OtVqV2BkFaGOCFg5NZGA0BewAAAAAAGAAOAHcpQHEds3RnaXXWlwwZIWkZ/8ATxghfUW2+1UMUUMWoxtjiYyKNvgtU4YwBoGTHldr3WnJLW59ATdZ8lvqCA0LYjaPW9a1DU4NQtNnigpQzRhsMMe690rmEkxtB5LZdo9Eh17TZabniOZrhPUmIyI52ggFwHHdIJDvT3K4DWjkAPQApQHBpoNoNm7gfI21Qsx7zWTxk9FI3+JKPIc09h+cdn3Z1zaTXxDTltW7/ltMdetE07z+ouZXYAT2Z5dy7q5rXAtc1rmnmHAEH5ivlkUUQIjjYwHmGNa0H1IDTditlZ9IE2pak1o1GzEIY4WlrhUgJDi1zhw33EDexwGAMlbhPDFZgsV5RmKeKSGUcOLJGlrgvVEBwvUtL1jZm+wvE0XQSh9K9GD0cjW/Fe2TGA7Hxge/gQeP1qO12varW8Ct3onQPLd+OvHFGZy05Af0flH0Dh3LuLmse1zXta5rhhzXAEEd4Kx4tP02CTpYKVSKT5cVeJj/AGmtBQGibAbPXq80+tX4XwF8BrafDM3dlLJCHSTvaeIzgBoPHmesLonYiID8+yWXV9RmsQyBk1fUJ5oXgAlkjJnOa4Bwxw9CzrO0O1GrsNSW9dtRyYa6CtFwkyeDXsrMBI7iu5brPkt9QUgAcgB6BhSDmux+xt9tyvq+sQmuys7paNOQgzGbGGzThpwA38Fuc54nGMHpYRFAOE7XvZ4/2lBcOFmQEcf3pi7fU41afP8A2eD+wF7brfkt49wUoCFWbQkDQdoM8P8ARd764XBWiYzkHke1AfnyhqVrTLUV2lM2OzGyRjHljHgCRu67yXgt+pXf2d7XfwlH+S1P8Ndm3WfJb6gm6z5LfUEBUbM3repaDo963IJbNmv0kzwxrA52+4Z3WgAepc2281mO9rEldkma+lMdWG7kg2Dh8zgOeRwb/R712IADlgehfO4z5LfUEBzTT/g5ks0qVi1qk1exPBHNLBHXjeIXSDe3N5zgcjrVRtNsmdna9O0y5JagnmfBK+SJkfRSbu8z4hPB2HervXZFBAPMA+kIDRfg61Ztmha0l7wZdOf0sAzxNWckgD8V2R6CFY7ekDZq6Ty8IpD/AKzVtIa0cQB8wCEA8wD6QgOU/BzDVs6nrTZooZmtoViBLG2QA9M4cN4EKs2r0N+z+ph0DnMpWXus6fK0kOhe1wcYt75TDgt7iO9dpDWjkAPQAhAPMA+kZQGvbJ7QR6/p4e9zfD6m7DfY0Yy8jyZmj5Lxx9II6lX/AAikDQIcnA8ZVf7Eq3ENaM4AHoACEA8wD6RlAcE0vXtU0Y2TptlkJs9H0xdFDJvdHvbv3VpxjJVn9ne138JRfktT/DXZ91nyW+oJus+S31BAVezly1qGh6NdtPElizUZLM8Nazee4njutAA9StlAAHAYA7lKAKQoUhAQi8KthtutUtNaWtswQ2GtdjeaJWB4Bxw6175QBEymUARMplAETKZQBEymUARMplAETKZQBEymUARMplAETKZQBEymUARMplAETKZQBEymUARMplAETKZQBEymUARMplAETKZQBEymUARMplAFIUZXmyZrrE1cA70UMExPDBErpWAD2D60B//Z;" vertex="1" parent="1">
          <mxGeometry x="640" y="238.3" width="200.58" height="100" as="geometry" />
        </mxCell>
        <mxCell id="ylZRVDWA_mgePYQw_-r8-5" value="" style="shadow=0;dashed=0;html=1;strokeColor=none;fillColor=#EF8F21;labelPosition=center;verticalLabelPosition=bottom;verticalAlign=top;align=center;outlineConnect=0;shape=mxgraph.veeam.linux;" vertex="1" parent="1">
          <mxGeometry x="240" y="263.3" width="59.09" height="50" as="geometry" />
        </mxCell>
        <mxCell id="ylZRVDWA_mgePYQw_-r8-7" value="" style="shape=flexArrow;endArrow=classic;startArrow=classic;html=1;rounded=0;entryX=0;entryY=0.5;entryDx=0;entryDy=0;" edge="1" parent="1" source="ylZRVDWA_mgePYQw_-r8-3" target="ylZRVDWA_mgePYQw_-r8-4">
          <mxGeometry width="100" height="100" relative="1" as="geometry">
            <mxPoint x="530" y="420" as="sourcePoint" />
            <mxPoint x="630" y="320" as="targetPoint" />
          </mxGeometry>
        </mxCell>
        <mxCell id="ylZRVDWA_mgePYQw_-r8-8" value="" style="shape=flexArrow;endArrow=classic;startArrow=classic;html=1;rounded=0;" edge="1" parent="1" source="ylZRVDWA_mgePYQw_-r8-5">
          <mxGeometry width="100" height="100" relative="1" as="geometry">
            <mxPoint x="480" y="450" as="sourcePoint" />
            <mxPoint x="470" y="290" as="targetPoint" />
          </mxGeometry>
        </mxCell>
      </root>
    </mxGraphModel>
  </diagram>
</mxfile>
